<?xml version="1.0" encoding="UTF-8"?>
<svg id="Capa_1" xmlns="http://www.w3.org/2000/svg" version="1.1" viewBox="0 0 24 24">
  <!-- Generator: Adobe Illustrator 29.1.0, SVG Export Plug-In . SVG Version: 2.1.0 Build 142)  -->
  <defs>
    <style>
      .st0 {
        fill: #bb4b00;
      }
    </style>
  </defs>
  <path class="st0" d="M17,9.2c-.2-.2-.4-.3-.7-.3s-.5.1-.7.3l-3.6,3.5-3.5-3.5c-.2-.2-.5-.3-.7-.3s-.6.1-.7.3c0,.1-.2.2-.3.3s0,.2,0,.4,0,.3,0,.4c0,.1,0,.2.2.3l4.2,4.2c.1.1.2.2.3.2.1.1.3.1.4.1s.3,0,.4-.1c.1-.1.2-.1.3-.2l4.3-4.2c.1-.1.2-.2.2-.3.1-.1.1-.3.1-.4s0-.3-.1-.4c0-.1-.1-.2-.2-.3Z"/>
</svg>