<?xml version="1.0" encoding="UTF-8"?>
<svg id="Capa_1" xmlns="http://www.w3.org/2000/svg" version="1.1" viewBox="0 0 24 24">
  <!-- Generator: Adobe Illustrator 29.1.0, SVG Export Plug-In . SVG Version: 2.1.0 Build 142)  -->
  <defs>
    <style>
      .st0 {
        fill: #bb4b00;
      }
    </style>
  </defs>
  <path class="st0" d="M12,12.4c3.4,0,6.2-2.8,6.2-6.2S15.4,0,12,0s-6.2,2.8-6.2,6.2,2.8,6.2,6.2,6.2ZM12,3.1c1.7,0,3.1,1.4,3.1,3.1s-1.4,3.1-3.1,3.1-3.1-1.4-3.1-3.1,1.4-3.1,3.1-3.1Z"/>
  <path class="st0" d="M18.7,15.8c-1.1-1.2-2.6-1.9-4.3-1.9h-4.7c-1.7,0-3.2.7-4.3,1.8-1.2,1.1-1.9,2.6-1.9,4.3v2.3c0,1,.6,1.7,1.5,1.7s1.5-.7,1.5-1.5v-2.3c0-.8.3-1.6,1-2.2.6-.6,1.3-1,2.2-1h4.6c.8,0,1.5.3,2.2,1,.6.5.9,1.3.9,2.1v2.3c0,.9.7,1.5,1.5,1.5s1.5-.7,1.5-1.5v-2.3c.1-1.5-.6-3.1-1.7-4.3Z"/>
</svg>