<?xml version="1.0" encoding="UTF-8"?>
<svg id="Capa_1" xmlns="http://www.w3.org/2000/svg" version="1.1" viewBox="0 0 24 24">
  <!-- Generator: Adobe Illustrator 29.1.0, SVG Export Plug-In . SVG Version: 2.1.0 Build 142)  -->
  <defs>
    <style>
      .st0 {
        fill: #bb4b00;
      }
    </style>
  </defs>
  <path class="st0" d="M21.9,11.6c-2-4.7-5.8-7.6-9.9-7.6s-7.9,2.9-9.9,7.6c-.1,0-.1.3-.1.4s0,.3,0,.4c2,4.7,5.8,7.6,9.9,7.6s7.9-2.9,9.9-7.6c.1,0,.1-.3.1-.4s0-.3-.1-.4ZM12,18c-3.2,0-6.2-2.3-7.9-6,1.7-3.7,4.7-6,7.9-6s6.2,2.3,7.9,6c-1.7,3.7-4.7,6-7.9,6ZM12,8c-.8,0-1.6.2-2.2.7-.7.4-1.2,1.1-1.5,1.8s-.4,1.5-.2,2.3c.2.8.5,1.5,1.1,2,.6.6,1.3.9,2,1.1.8.2,1.6,0,2.3-.2.7-.3,1.4-.8,1.8-1.5.4-.7.7-1.4.7-2.2s-.4-2.1-1.2-2.8c-.7-.8-1.7-1.2-2.8-1.2ZM12,14c-.4,0-.8-.1-1.1-.3s-.6-.5-.7-.9c-.2-.4-.2-.8-.2-1.2.1-.4.3-.7.5-1,.3-.3.6-.5,1-.5.4-.1.8,0,1.2.1.4.2.7.4.9.7s.3.7.3,1.1-.2,1-.6,1.4-.8.6-1.3.6Z"/>
</svg>